<svg width="250" height="32" viewBox="0 0 250 32" fill="none" xmlns="http://www.w3.org/2000/svg">
<g clip-path="url(#clip0_17_112)">
<path d="M43.4821 28.2857C41.7361 28.2857 40.1389 28.0095 38.6905 27.4571C37.2421 26.8857 35.9921 26.0953 34.9405 25.0857C33.9087 24.0571 33.1052 22.8476 32.5298 21.4571C31.9543 20.0476 31.6667 18.5047 31.6667 16.8286C31.6667 15.1524 31.9543 13.619 32.5298 12.2286C33.1052 10.8381 33.9087 9.63812 34.9405 8.62857C35.9921 7.6 37.2421 6.80954 38.6905 6.25714C40.1389 5.68572 41.7361 5.4 43.4821 5.4C45.2282 5.4 46.8155 5.68572 48.244 6.25714C49.6924 6.80954 50.9424 7.6 51.994 8.62857C53.0457 9.63812 53.8591 10.8381 54.4345 12.2286C55.0099 13.619 55.2976 15.1524 55.2976 16.8286C55.2976 18.5047 55.0099 20.0476 54.4345 21.4571C53.8591 22.8476 53.0457 24.0571 51.994 25.0857C50.9424 26.0953 49.6924 26.8857 48.244 27.4571C46.8155 28.0095 45.2282 28.2857 43.4821 28.2857ZM43.4821 25.6C44.7718 25.6 45.9524 25.381 47.0238 24.9429C48.1151 24.4857 49.0576 23.8667 49.8512 23.0857C50.6448 22.2857 51.25 21.3524 51.6667 20.2857C52.1032 19.219 52.3214 18.0667 52.3214 16.8286C52.3214 15.5905 52.1032 14.4381 51.6667 13.3714C51.25 12.3047 50.6448 11.381 49.8512 10.6C49.0576 9.8 48.1151 9.18097 47.0238 8.74286C45.9524 8.30474 44.7718 8.08572 43.4821 8.08572C42.1924 8.08572 41.002 8.30474 39.9107 8.74286C38.8393 9.18097 37.9067 9.8 37.1131 10.6C36.3393 11.381 35.7341 12.3047 35.2976 13.3714C34.8611 14.4381 34.6429 15.5905 34.6429 16.8286C34.6429 18.0667 34.8611 19.219 35.2976 20.2857C35.7341 21.3524 36.3393 22.2857 37.1131 23.0857C37.9067 23.8667 38.8393 24.4857 39.9107 24.9429C41.002 25.381 42.1924 25.6 43.4821 25.6ZM63.1815 28C62.7452 28 62.378 27.8571 62.0804 27.5714C61.7827 27.2857 61.6339 26.9333 61.6339 26.5143V7.17143C61.6339 6.73332 61.7827 6.38097 62.0804 6.11429C62.378 5.82857 62.7452 5.68572 63.1815 5.68572H69.1339C70.622 5.68572 71.9417 6 73.0923 6.62857C74.2429 7.25714 75.1357 8.13332 75.7708 9.25714C76.4256 10.3619 76.753 11.6381 76.753 13.0857C76.753 14.4762 76.4256 15.7143 75.7708 16.8C75.1357 17.8857 74.2429 18.7333 73.0923 19.3429C71.9417 19.9524 70.622 20.2571 69.1339 20.2571H64.7292V26.5143C64.7292 26.9333 64.5804 27.2857 64.2827 27.5714C64.0048 27.8571 63.6381 28 63.1815 28ZM64.7292 17.5143H69.1339C70.0464 17.5143 70.85 17.3238 71.5446 16.9429C72.2393 16.5619 72.7845 16.0381 73.1815 15.3714C73.5786 14.7047 73.7768 13.9429 73.7768 13.0857C73.7768 12.1714 73.5786 11.3714 73.1815 10.6857C72.7845 9.98097 72.2393 9.42857 71.5446 9.02857C70.85 8.62857 70.0464 8.42857 69.1339 8.42857H64.7292V17.5143ZM92.4089 28.2857C90.6631 28.2857 89.0661 28.0095 87.6173 27.4571C86.1691 26.8857 84.919 26.0953 83.8673 25.0857C82.8357 24.0571 82.0321 22.8476 81.4565 21.4571C80.8815 20.0476 80.5935 18.5047 80.5935 16.8286C80.5935 15.1524 80.8815 13.619 81.4565 12.2286C82.0321 10.8381 82.8357 9.63812 83.8673 8.62857C84.919 7.6 86.1691 6.80954 87.6173 6.25714C89.0661 5.68572 90.6631 5.4 92.4089 5.4C94.1554 5.4 95.7423 5.68572 97.1708 6.25714C98.6196 6.80954 99.8696 7.6 100.921 8.62857C101.973 9.63812 102.786 10.8381 103.361 12.2286C103.937 13.619 104.224 15.1524 104.224 16.8286C104.224 18.5047 103.937 20.0476 103.361 21.4571C102.786 22.8476 101.973 24.0571 100.921 25.0857C99.8696 26.0953 98.6196 26.8857 97.1708 27.4571C95.7423 28.0095 94.1554 28.2857 92.4089 28.2857ZM92.4089 25.6C93.6988 25.6 94.8792 25.381 95.9506 24.9429C97.0423 24.4857 97.9845 23.8667 98.778 23.0857C99.572 22.2857 100.177 21.3524 100.593 20.2857C101.03 19.219 101.248 18.0667 101.248 16.8286C101.248 15.5905 101.03 14.4381 100.593 13.3714C100.177 12.3047 99.572 11.381 98.778 10.6C97.9845 9.8 97.0423 9.18097 95.9506 8.74286C94.8792 8.30474 93.6988 8.08572 92.4089 8.08572C91.1196 8.08572 89.9292 8.30474 88.8375 8.74286C87.7661 9.18097 86.8339 9.8 86.0399 10.6C85.2661 11.381 84.6613 12.3047 84.2244 13.3714C83.7881 14.4381 83.5696 15.5905 83.5696 16.8286C83.5696 18.0667 83.7881 19.219 84.2244 20.2857C84.6613 21.3524 85.2661 22.2857 86.0399 23.0857C86.8339 23.8667 87.7661 24.4857 88.8375 24.9429C89.9292 25.381 91.1196 25.6 92.4089 25.6ZM112.079 28C111.642 28 111.275 27.8571 110.977 27.5714C110.7 27.2857 110.561 26.9333 110.561 26.5143V7.17143C110.561 6.7524 110.71 6.4 111.007 6.11429C111.305 5.82857 111.662 5.68572 112.079 5.68572C112.515 5.68572 112.882 5.82857 113.18 6.11429C113.477 6.4 113.626 6.7524 113.626 7.17143V25.0286H124.4C124.837 25.0286 125.204 25.1714 125.501 25.4571C125.799 25.7429 125.948 26.0953 125.948 26.5143C125.948 26.9333 125.799 27.2857 125.501 27.5714C125.204 27.8571 124.837 28 124.4 28H112.079ZM139.796 28.2857C138.049 28.2857 136.452 28.0095 135.004 27.4571C133.555 26.8857 132.305 26.0953 131.254 25.0857C130.222 24.0571 129.418 22.8476 128.843 21.4571C128.268 20.0476 127.98 18.5047 127.98 16.8286C127.98 15.1524 128.268 13.619 128.843 12.2286C129.418 10.8381 130.222 9.63812 131.254 8.62857C132.305 7.6 133.555 6.80954 135.004 6.25714C136.452 5.68572 138.049 5.4 139.796 5.4C141.542 5.4 143.129 5.68572 144.558 6.25714C146.006 6.80954 147.256 7.6 148.308 8.62857C149.359 9.63812 150.173 10.8381 150.748 12.2286C151.323 13.619 151.611 15.1524 151.611 16.8286C151.611 18.5047 151.323 20.0476 150.748 21.4571C150.173 22.8476 149.359 24.0571 148.308 25.0857C147.256 26.0953 146.006 26.8857 144.558 27.4571C143.129 28.0095 141.542 28.2857 139.796 28.2857ZM139.796 25.6C141.085 25.6 142.266 25.381 143.338 24.9429C144.429 24.4857 145.371 23.8667 146.165 23.0857C146.958 22.2857 147.564 21.3524 147.98 20.2857C148.417 19.219 148.635 18.0667 148.635 16.8286C148.635 15.5905 148.417 14.4381 147.98 13.3714C147.564 12.3047 146.958 11.381 146.165 10.6C145.371 9.8 144.429 9.18097 143.338 8.74286C142.266 8.30474 141.085 8.08572 139.796 8.08572C138.506 8.08572 137.315 8.30474 136.224 8.74286C135.153 9.18097 134.22 9.8 133.427 10.6C132.653 11.381 132.048 12.3047 131.611 13.3714C131.174 14.4381 130.957 15.5905 130.957 16.8286C130.957 18.0667 131.174 19.219 131.611 20.2857C132.048 21.3524 132.653 22.2857 133.427 23.0857C134.22 23.8667 135.153 24.4857 136.224 24.9429C137.315 25.381 138.506 25.6 139.796 25.6ZM167.783 28.2857C166.176 28.2857 164.668 28 163.259 27.4286C161.87 26.8381 160.65 26.0286 159.598 25C158.567 23.9524 157.753 22.7333 157.158 21.3429C156.582 19.9524 156.295 18.4476 156.295 16.8286C156.295 15.2286 156.582 13.7429 157.158 12.3714C157.753 10.981 158.567 9.77143 159.598 8.74286C160.65 7.69526 161.87 6.87617 163.259 6.28572C164.648 5.69524 166.156 5.4 167.783 5.4C169.311 5.4 170.62 5.59048 171.711 5.97143C172.823 6.3524 173.933 6.98097 175.045 7.85714C175.204 7.97143 175.323 8.09526 175.402 8.22857C175.501 8.34286 175.561 8.46669 175.58 8.6C175.62 8.71429 175.64 8.85714 175.64 9.02857C175.64 9.39046 175.501 9.69526 175.223 9.94286C174.965 10.1905 174.638 10.3238 174.241 10.3429C173.864 10.3619 173.507 10.2381 173.17 9.97143C172.436 9.36189 171.671 8.89526 170.878 8.57143C170.104 8.2476 169.073 8.08572 167.783 8.08572C166.612 8.08572 165.511 8.31429 164.479 8.77143C163.448 9.22857 162.535 9.85714 161.741 10.6571C160.967 11.4571 160.362 12.3905 159.926 13.4571C159.489 14.5047 159.271 15.6286 159.271 16.8286C159.271 18.0476 159.489 19.1905 159.926 20.2571C160.362 21.3047 160.967 22.2286 161.741 23.0286C162.535 23.8286 163.448 24.4571 164.479 24.9143C165.511 25.3524 166.612 25.5714 167.783 25.5714C168.795 25.5714 169.747 25.4095 170.64 25.0857C171.552 24.7429 172.426 24.2762 173.259 23.6857C173.616 23.4381 173.963 23.3333 174.301 23.3714C174.658 23.3905 174.955 23.5238 175.193 23.7714C175.432 24 175.551 24.3238 175.551 24.7429C175.551 24.9333 175.511 25.1238 175.432 25.3143C175.372 25.4857 175.253 25.6476 175.074 25.8C174.023 26.6381 172.882 27.2667 171.652 27.6857C170.421 28.0857 169.132 28.2857 167.783 28.2857ZM175.551 24.7429L172.574 24.1714V19.0571H168.467C168.031 19.0571 167.664 18.9333 167.366 18.6857C167.068 18.4381 166.92 18.1238 166.92 17.7429C166.92 17.3619 167.068 17.0476 167.366 16.8C167.664 16.5524 168.031 16.4286 168.467 16.4286H174.033C174.489 16.4286 174.856 16.5714 175.134 16.8571C175.412 17.1238 175.551 17.4762 175.551 17.9143V24.7429ZM183.537 28C183.101 28 182.733 27.8571 182.436 27.5714C182.138 27.2857 181.989 26.9333 181.989 26.5143V7.17143C181.989 6.73332 182.138 6.38097 182.436 6.11429C182.733 5.82857 183.101 5.68572 183.537 5.68572C183.993 5.68572 184.361 5.82857 184.638 6.11429C184.936 6.38097 185.085 6.73332 185.085 7.17143V26.5143C185.085 26.9333 184.936 27.2857 184.638 27.5714C184.361 27.8571 183.993 28 183.537 28ZM202.933 28.2857C201.326 28.2857 199.818 28 198.41 27.4286C197.02 26.8381 195.8 26.0286 194.749 25C193.717 23.9524 192.904 22.7333 192.308 21.3429C191.733 19.9524 191.445 18.4476 191.445 16.8286C191.445 15.2286 191.733 13.7429 192.308 12.3714C192.904 10.981 193.717 9.77143 194.749 8.74286C195.8 7.69526 197.02 6.87617 198.41 6.28572C199.798 5.69524 201.306 5.4 202.933 5.4C204.461 5.4 205.77 5.59048 206.862 5.97143C207.973 6.3524 209.084 6.98097 210.195 7.85714C210.354 7.97143 210.473 8.09526 210.552 8.22857C210.651 8.34286 210.711 8.46669 210.731 8.6C210.77 8.71429 210.79 8.85714 210.79 9.02857C210.79 9.39046 210.651 9.69526 210.374 9.94286C210.115 10.1714 209.798 10.3047 209.421 10.3429C209.044 10.3619 208.677 10.2381 208.32 9.97143C207.586 9.36189 206.822 8.89526 206.029 8.57143C205.255 8.2476 204.223 8.08572 202.933 8.08572C201.762 8.08572 200.661 8.31429 199.63 8.77143C198.598 9.22857 197.685 9.85714 196.892 10.6571C196.118 11.4571 195.512 12.3905 195.076 13.4571C194.639 14.5047 194.421 15.6286 194.421 16.8286C194.421 18.0476 194.639 19.1905 195.076 20.2571C195.512 21.3047 196.118 22.2286 196.892 23.0286C197.685 23.8286 198.598 24.4571 199.63 24.9143C200.661 25.3524 201.762 25.5714 202.933 25.5714C203.945 25.5714 204.898 25.4095 205.79 25.0857C206.703 24.7429 207.576 24.2762 208.41 23.6857C208.767 23.4381 209.114 23.3333 209.451 23.3714C209.808 23.3905 210.106 23.5238 210.344 23.7714C210.582 24 210.701 24.3238 210.701 24.7429C210.701 24.9333 210.661 25.1238 210.582 25.3143C210.502 25.4857 210.383 25.6476 210.225 25.8C209.154 26.619 208.002 27.2381 206.773 27.6571C205.562 28.0762 204.282 28.2857 202.933 28.2857ZM216.217 28C215.662 28 215.235 27.7714 214.937 27.3143C214.64 26.8571 214.61 26.3714 214.848 25.8571L223.211 6.68572C223.509 6.01903 223.995 5.68572 224.67 5.68572C225.384 5.68572 225.87 6.01903 226.128 6.68572L234.521 25.9143C234.739 26.4476 234.699 26.9333 234.402 27.3714C234.124 27.7905 233.698 28 233.122 28C232.824 28 232.537 27.9238 232.259 27.7714C232.001 27.6 231.812 27.3714 231.693 27.0857L224.312 9.48572H225.146L217.646 27.0857C217.507 27.3905 217.299 27.619 217.021 27.7714C216.763 27.9238 216.495 28 216.217 28ZM217.795 23.0857L218.985 20.6286H230.652L231.842 23.0857H217.795ZM241.072 28C240.636 28 240.268 27.8571 239.971 27.5714C239.693 27.2857 239.554 26.9333 239.554 26.5143V7.17143C239.554 6.7524 239.703 6.4 240.001 6.11429C240.298 5.82857 240.655 5.68572 241.072 5.68572C241.509 5.68572 241.876 5.82857 242.173 6.11429C242.471 6.4 242.62 6.7524 242.62 7.17143V25.0286H253.393C253.83 25.0286 254.197 25.1714 254.495 25.4571C254.792 25.7429 254.941 26.0953 254.941 26.5143C254.941 26.9333 254.792 27.2857 254.495 27.5714C254.197 27.8571 253.83 28 253.393 28H241.072Z" fill="#AA6B0B"/>
<path d="M17.5749 4.98214C18.0427 4.98214 18.4362 5.13527 18.7552 5.44152C19.053 5.74777 19.2018 6.12549 19.2018 6.57463V27.3078C19.2018 27.7569 19.0423 28.1346 18.7233 28.4409C18.4043 28.7471 18.0215 28.9003 17.5749 28.9003C17.107 28.9003 16.7136 28.7471 16.3945 28.4409C16.0755 28.1346 15.916 27.7569 15.916 27.3078V8.16714H4.36786C3.89998 8.16714 3.50652 8.014 3.18751 7.70777C2.86851 7.40154 2.709 7.02383 2.709 6.57463C2.709 6.12549 2.86851 5.74777 3.18751 5.44152C3.50652 5.13527 3.89998 4.98214 4.36786 4.98214H17.5749Z" fill="#AA6B0B"/>
<g filter="url(#filter0_i_17_112)">
<path d="M15.7584 4.98214C15.2906 4.98214 14.8971 5.13527 14.5781 5.44152C14.2804 5.74777 14.1315 6.12549 14.1315 6.57463V27.3078C14.1315 27.7569 14.291 28.1346 14.61 28.4409C14.929 28.7471 15.3118 28.9003 15.7584 28.9003C16.2263 28.9003 16.6198 28.7471 16.9388 28.4409C17.2578 28.1346 17.4173 27.7569 17.4173 27.3078V8.16714H28.9655C29.4333 8.16714 29.8268 8.014 30.1458 7.70777C30.4648 7.40154 30.6243 7.02383 30.6243 6.57463C30.6243 6.12549 30.4648 5.74777 30.1458 5.44152C29.8268 5.13527 29.4333 4.98214 28.9655 4.98214H15.7584Z" fill="black" fill-opacity="0.8"/>
<path d="M14.5781 5.44152L14.4829 5.35623L14.4845 5.35466L14.4861 5.35313L14.5781 5.44152ZM14.61 28.4409L14.518 28.5293L14.61 28.4409ZM17.4173 8.16714H17.2871V8.04217H17.4173V8.16714ZM30.1458 7.70777L30.2379 7.79617L30.1458 7.70777ZM30.1458 5.44152L30.2379 5.35313L30.1458 5.44152ZM15.7585 5.10714C15.3237 5.10714 14.9638 5.24806 14.6702 5.5299L14.4861 5.35313C14.8305 5.02248 15.2574 4.85714 15.7585 4.85714V5.10714ZM14.6733 5.52681C14.3998 5.80812 14.2617 6.15463 14.2617 6.57463H14.0013C14.0013 6.09634 14.161 5.68739 14.4829 5.35623L14.6733 5.52681ZM14.2617 6.57463V27.3078H14.0013V6.57463H14.2617ZM14.2617 27.3078C14.2617 27.7251 14.4085 28.0706 14.7021 28.3525L14.518 28.5293C14.1736 28.1986 14.0013 27.7887 14.0013 27.3078H14.2617ZM14.7021 28.3525C14.997 28.6357 15.3467 28.7753 15.7585 28.7753V29.0253C15.277 29.0253 14.8611 28.8587 14.518 28.5293L14.7021 28.3525ZM15.7585 28.7753C16.1932 28.7753 16.5531 28.6344 16.8467 28.3525L17.0308 28.5293C16.6864 28.8599 16.2593 29.0253 15.7585 29.0253V28.7753ZM16.8467 28.3525C17.1404 28.0706 17.2871 27.7251 17.2871 27.3078H17.5475C17.5475 27.7887 17.3752 28.1986 17.0308 28.5293L16.8467 28.3525ZM17.2871 27.3078V8.16714H17.5475V27.3078H17.2871ZM17.4173 8.04217H28.9655V8.29217H17.4173V8.04217ZM28.9655 8.04217C29.4002 8.04217 29.7602 7.90126 30.0538 7.61937L30.2379 7.79617C29.8935 8.1268 29.4664 8.29217 28.9655 8.29217V8.04217ZM30.0538 7.61937C30.3474 7.33754 30.4942 6.99206 30.4942 6.57463H30.7546C30.7546 7.0556 30.5823 7.46549 30.2379 7.79617L30.0538 7.61937ZM30.4942 6.57463C30.4942 6.15726 30.3474 5.81177 30.0538 5.5299L30.2379 5.35313C30.5823 5.68378 30.7546 6.09371 30.7546 6.57463H30.4942ZM30.0538 5.5299C29.7602 5.24806 29.4002 5.10714 28.9655 5.10714V4.85714C29.4664 4.85714 29.8935 5.02248 30.2379 5.35313L30.0538 5.5299ZM28.9655 5.10714H15.7585V4.85714H28.9655V5.10714Z" fill="black"/>
</g>
</g>
<defs>
<filter id="filter0_i_17_112" x="14.0013" y="4.85714" width="16.7533" height="28.1681" filterUnits="userSpaceOnUse" color-interpolation-filters="sRGB">
<feFlood flood-opacity="0" result="BackgroundImageFix"/>
<feBlend mode="normal" in="SourceGraphic" in2="BackgroundImageFix" result="shape"/>
<feColorMatrix in="SourceAlpha" type="matrix" values="0 0 0 0 0 0 0 0 0 0 0 0 0 0 0 0 0 0 127 0" result="hardAlpha"/>
<feOffset dy="4"/>
<feGaussianBlur stdDeviation="2"/>
<feComposite in2="hardAlpha" operator="arithmetic" k2="-1" k3="1"/>
<feColorMatrix type="matrix" values="0 0 0 0 0 0 0 0 0 0 0 0 0 0 0 0 0 0 0.25 0"/>
<feBlend mode="normal" in2="shape" result="effect1_innerShadow_17_112"/>
</filter>
<clipPath id="clip0_17_112">
<rect width="250" height="32" fill="white"/>
</clipPath>
</defs>
</svg>
